<?xml version="1.0" encoding="UTF-8"?> <!-- Generator: Adobe Illustrator 24.0.1, SVG Export Plug-In . SVG Version: 6.00 Build 0) --> <svg xmlns="http://www.w3.org/2000/svg" xmlns:xlink="http://www.w3.org/1999/xlink" id="Слой_1" x="0px" y="0px" viewBox="0 0 85.6 70.2" style="enable-background:new 0 0 85.6 70.2;" xml:space="preserve"> <style type="text/css"> .st0{fill:none;stroke:#1A3A1D;stroke-width:1.5;stroke-miterlimit:10;} .st1{fill:none;stroke:#737D27;stroke-width:1.5;stroke-miterlimit:10;} </style> <path class="st0" d="M7,57.9V12.4c0-1,0.7-1.7,1.6-1.7h68.6c0.9,0,1.6,0.8,1.6,1.7v45.6c0,1-0.7,1.7-1.6,1.7H8.6 C7.7,59.6,7,58.9,7,57.9z"></path> <path class="st1" d="M78.8,28.4c-0.5,0-35.2,18.5-35.7,18.5C42.6,46.8,7.5,28.4,7,28.4v-7.1c0.5,0,35.4,18.5,35.9,18.5 c0.5,0,35.3-18.5,35.9-18.5V28.4z"></path> </svg> 