<?xml version="1.0" encoding="UTF-8"?> <!-- Generator: Adobe Illustrator 24.0.1, SVG Export Plug-In . SVG Version: 6.00 Build 0) --> <svg xmlns="http://www.w3.org/2000/svg" xmlns:xlink="http://www.w3.org/1999/xlink" id="Слой_1" x="0px" y="0px" viewBox="0 0 47.5 75" style="enable-background:new 0 0 47.5 75;" xml:space="preserve"> <style type="text/css"> .st0{fill:none;stroke:#1A3A1D;stroke-width:1.5;stroke-miterlimit:10;} .st1{fill:none;stroke:#737D27;stroke-width:1.5;stroke-miterlimit:10;} </style> <path class="st0" d="M39.7,68.8H8.9c-0.8,0-1.4-0.6-1.4-1.4V7.3c0-0.8,0.6-1.4,1.4-1.4h30.8c0.8,0,1.4,0.6,1.4,1.4v60.1 C41.1,68.2,40.5,68.8,39.7,68.8z"></path> <path class="st1" d="M35.2,55.7H13.4c-0.2,0-0.3-0.1-0.3-0.3V11.1c0-0.2,0.1-0.3,0.3-0.3h21.7c0.2,0,0.3,0.1,0.3,0.3v44.4 C35.4,55.6,35.3,55.7,35.2,55.7z"></path> <path class="st1" d="M27.2,65.4h-5.8c-0.2,0-0.3-0.1-0.3-0.3v-5.8c0-0.2,0.1-0.3,0.3-0.3h5.8c0.2,0,0.3,0.1,0.3,0.3v5.8 C27.5,65.3,27.4,65.4,27.2,65.4z"></path> </svg> 