<?xml version="1.0" encoding="UTF-8"?> <!-- Generator: Adobe Illustrator 24.0.1, SVG Export Plug-In . SVG Version: 6.00 Build 0) --> <svg xmlns="http://www.w3.org/2000/svg" xmlns:xlink="http://www.w3.org/1999/xlink" x="0px" y="0px" viewBox="0 0 64.7 62.4" style="enable-background:new 0 0 64.7 62.4;" xml:space="preserve"> <style type="text/css"> .st0{display:none;} .st1{display:inline;fill:#737D27;} .st2{display:inline;fill:#575756;} .st3{fill:none;stroke:#737D27;stroke-width:1.5;stroke-miterlimit:10;} .st4{fill:none;stroke:#575756;stroke-width:1.5;stroke-miterlimit:10;} </style> <g id="Слой_1" class="st0"> <path class="st1" d="M22,23.5h-5.2c-0.5,0-0.9,0.4-0.9,0.9v5.2c0,0.5,0.4,0.9,0.9,0.9H22c0.5,0,0.9-0.4,0.9-0.9v-5.2 C22.9,23.9,22.5,23.5,22,23.5 M21.1,28.7h-3.5v-3.5h3.5V28.7z"></path> <path class="st1" d="M30.7,23.5h-5.2c-0.5,0-0.9,0.4-0.9,0.9v5.2c0,0.5,0.4,0.9,0.9,0.9h5.2c0.5,0,0.9-0.4,0.9-0.9v-5.2 C31.6,23.9,31.2,23.5,30.7,23.5 M29.8,28.7h-3.5v-3.5h3.5V28.7z"></path> <path class="st1" d="M39.4,23.5h-5.2c-0.5,0-0.9,0.4-0.9,0.9v5.2c0,0.5,0.4,0.9,0.9,0.9h5.2c0.5,0,0.9-0.4,0.9-0.9v-5.2 C40.3,23.9,39.9,23.5,39.4,23.5 M38.5,28.7H35v-3.5h3.5V28.7z"></path> <path class="st1" d="M42.9,30.5h5.2c0.5,0,0.9-0.4,0.9-0.9v-5.2c0-0.5-0.4-0.9-0.9-0.9h-5.2c-0.5,0-0.9,0.4-0.9,0.9v5.2 C42,30.1,42.4,30.5,42.9,30.5 M43.7,25.3h3.5v3.5h-3.5V25.3z"></path> <path class="st1" d="M22,32.2h-5.2c-0.5,0-0.9,0.4-0.9,0.9v5.2c0,0.5,0.4,0.9,0.9,0.9H22c0.5,0,0.9-0.4,0.9-0.9v-5.2 C22.9,32.6,22.5,32.2,22,32.2 M21.1,37.4h-3.5v-3.5h3.5V37.4z"></path> <path class="st1" d="M30.7,32.2h-5.2c-0.5,0-0.9,0.4-0.9,0.9v5.2c0,0.5,0.4,0.9,0.9,0.9h5.2c0.5,0,0.9-0.4,0.9-0.9v-5.2 C31.6,32.6,31.2,32.2,30.7,32.2 M29.8,37.4h-3.5v-3.5h3.5V37.4z"></path> <path class="st1" d="M39.4,32.2h-5.2c-0.5,0-0.9,0.4-0.9,0.9v5.2c0,0.5,0.4,0.9,0.9,0.9h5.2c0.5,0,0.9-0.4,0.9-0.9v-5.2 C40.3,32.6,39.9,32.2,39.4,32.2 M38.5,37.4H35v-3.5h3.5V37.4z"></path> <path class="st1" d="M42.9,39.2h5.2c0.5,0,0.9-0.4,0.9-0.9v-5.2c0-0.5-0.4-0.9-0.9-0.9h-5.2c-0.5,0-0.9,0.4-0.9,0.9v5.2 C42,38.8,42.4,39.2,42.9,39.2 M43.7,33.9h3.5v3.5h-3.5V33.9z"></path> <path class="st1" d="M22,40.9h-5.2c-0.5,0-0.9,0.4-0.9,0.9V47c0,0.5,0.4,0.9,0.9,0.9H22c0.5,0,0.9-0.4,0.9-0.9v-5.2 C22.9,41.3,22.5,40.9,22,40.9 M21.1,46.1h-3.5v-3.5h3.5V46.1z"></path> <path class="st1" d="M30.7,40.9h-5.2c-0.5,0-0.9,0.4-0.9,0.9V47c0,0.5,0.4,0.9,0.9,0.9h5.2c0.5,0,0.9-0.4,0.9-0.9v-5.2 C31.6,41.3,31.2,40.9,30.7,40.9 M29.8,46.1h-3.5v-3.5h3.5V46.1z"></path> <path class="st1" d="M39.4,40.9h-5.2c-0.5,0-0.9,0.4-0.9,0.9V47c0,0.5,0.4,0.9,0.9,0.9h5.2c0.5,0,0.9-0.4,0.9-0.9v-5.2 C40.3,41.3,39.9,40.9,39.4,40.9 M38.5,46.1H35v-3.5h3.5V46.1z"></path> <path class="st2" d="M54.1,41.2V10.5c0-0.5-0.4-0.9-0.9-0.9h-4.3V8.8c0-1.4-1.2-2.6-2.6-2.6c-1.4,0-2.6,1.2-2.6,2.6v0.9H42V8.8 c0-1.4-1.2-2.6-2.6-2.6c-1.4,0-2.6,1.2-2.6,2.6v0.9H35V8.8c0-1.4-1.2-2.6-2.6-2.6c-1.4,0-2.6,1.2-2.6,2.6v0.9h-1.7V8.8 c0-1.4-1.2-2.6-2.6-2.6c-1.4,0-2.6,1.2-2.6,2.6v0.9h-1.7V8.8c0-1.4-1.2-2.6-2.6-2.6s-2.6,1.2-2.6,2.6v0.9h-4.3 c-0.5,0-0.9,0.4-0.9,0.9v41.7c0,0.5,0.4,0.9,0.9,0.9h30.7c2.4,4.2,7.7,5.6,11.9,3.2c4.2-2.4,5.6-7.7,3.2-11.9 C56.6,43.1,55.5,42,54.1,41.2 M45.5,8.8c0-0.5,0.4-0.9,0.9-0.9c0.5,0,0.9,0.4,0.9,0.9v3.5c0,0.5-0.4,0.9-0.9,0.9 c-0.5,0-0.9-0.4-0.9-0.9V8.8z M38.5,8.8c0-0.5,0.4-0.9,0.9-0.9c0.5,0,0.9,0.4,0.9,0.9v3.5c0,0.5-0.4,0.9-0.9,0.9 c-0.5,0-0.9-0.4-0.9-0.9V8.8z M31.6,8.8c0-0.5,0.4-0.9,0.9-0.9c0.5,0,0.9,0.4,0.9,0.9v3.5c0,0.5-0.4,0.9-0.9,0.9 c-0.5,0-0.9-0.4-0.9-0.9V8.8z M24.6,8.8c0-0.5,0.4-0.9,0.9-0.9c0.5,0,0.9,0.4,0.9,0.9v3.5c0,0.5-0.4,0.9-0.9,0.9 c-0.5,0-0.9-0.4-0.9-0.9V8.8z M17.7,8.8c0-0.5,0.4-0.9,0.9-0.9c0.5,0,0.9,0.4,0.9,0.9v3.5c0,0.5-0.4,0.9-0.9,0.9 c-0.5,0-0.9-0.4-0.9-0.9V8.8z M12.5,11.4h3.5v0.9c0,1.4,1.2,2.6,2.6,2.6s2.6-1.2,2.6-2.6v-0.9h1.7v0.9c0,1.4,1.2,2.6,2.6,2.6 c1.4,0,2.6-1.2,2.6-2.6v-0.9h1.7v0.9c0,1.4,1.2,2.6,2.6,2.6c1.4,0,2.6-1.2,2.6-2.6v-0.9h1.7v0.9c0,1.4,1.2,2.6,2.6,2.6 c1.4,0,2.6-1.2,2.6-2.6v-0.9h1.7v0.9c0,1.4,1.2,2.6,2.6,2.6c1.4,0,2.6-1.2,2.6-2.6v-0.9h3.5v6.9H12.5V11.4z M12.5,51.3V20h39.9 v20.4c-4.6-1.4-9.4,1.1-10.9,5.7c-0.5,1.7-0.5,3.5,0,5.2H12.5z M49.8,55.7c-3.8,0-6.9-3.1-6.9-6.9c0-3.8,3.1-6.9,6.9-6.9 c3.8,0,6.9,3.1,6.9,6.9C56.7,52.5,53.6,55.6,49.8,55.7"></path> <path class="st1" d="M52.7,45.4l-3.7,3l-2.1-2.1c-0.3-0.3-0.9-0.3-1.2,0c-0.3,0.3-0.3,0.9,0,1.2l2.6,2.6c0.3,0.3,0.8,0.3,1.2,0.1 l4.3-3.5c0.4-0.3,0.4-0.8,0.1-1.2C53.7,45.2,53.1,45.1,52.7,45.4L52.7,45.4z"></path> </g> <g id="Слой_2"> <path class="st3" d="M50.3,44.1l-4.1-32c-0.1-0.7,0.4-1.3,1.1-1.3h6.2c0.5,0,1,0.4,1.1,0.9l6.9,32c0.2,0.7-0.4,1.4-1.1,1.4h-9 C50.9,45.1,50.4,44.7,50.3,44.1z"></path> <path class="st3" d="M34.5,43.9v-32c0-0.6,0.5-1.1,1.1-1.1H42c0.6,0,1.1,0.4,1.1,1l3,32c0.1,0.7-0.5,1.2-1.1,1.2h-9.5 C35,45.1,34.5,44.6,34.5,43.9z"></path> <path class="st3" d="M15,44.1l5.4-32c0.1-0.7-0.4-1.3-1.1-1.3h-6.1c-0.5,0-1,0.3-1.1,0.8l-8.2,32c-0.2,0.7,0.4,1.4,1.1,1.4h9 C14.4,45.1,14.9,44.7,15,44.1z"></path> <path class="st3" d="M30.8,43.9l1.1-32.1c0-0.6-0.5-1.2-1.1-1.2l-6.4,0.1c-0.6,0-1,0.4-1.1,1l-4.1,32.1c-0.1,0.7,0.4,1.3,1.1,1.3 l9.4-0.1C30.3,45,30.8,44.5,30.8,43.9z"></path> <path class="st3" d="M55.7,50.6l1.2-2.2c0.2-0.4,0.6-0.6,1-0.6h1.8c0.9,0,1.4,1,1,1.7l-1.3,2.2c-0.2,0.3-0.6,0.5-1,0.5h-1.6 C55.8,52.3,55.3,51.4,55.7,50.6z"></path> <path class="st3" d="M8.9,50.6l-1.2-2.2c-0.2-0.4-0.6-0.6-1-0.6H5c-0.9,0-1.4,1-1,1.7l1.3,2.2c0.2,0.3,0.6,0.5,1,0.5H8 C8.8,52.3,9.4,51.4,8.9,50.6z"></path> <path class="st3" d="M30.7,50.8v-1.3c0-0.9,0.7-1.5,1.5-1.5h1.3c0.9,0,1.5,0.7,1.5,1.5v1.3c0,0.9-0.7,1.5-1.5,1.5h-1.3 C31.4,52.3,30.7,51.6,30.7,50.8z"></path> <path class="st4" d="M37.7,50.7V51c0,0.6,0.5,1.1,1.1,1.1h12.3c0.4,0,0.8-0.2,1-0.6l0.2-0.3c0.4-0.7-0.2-1.6-1-1.6H38.9 C38.2,49.5,37.7,50,37.7,50.7z"></path> <path class="st4" d="M28,50.7V51c0,0.6-0.5,1.1-1.1,1.1H13c-0.4,0-0.8-0.2-1-0.6l-0.2-0.3c-0.4-0.8,0.1-1.7,1-1.7h14.1 C27.5,49.5,28,50,28,50.7z"></path> </g> </svg> 