<?xml version="1.0" encoding="UTF-8"?> <!-- Generator: Adobe Illustrator 24.0.1, SVG Export Plug-In . SVG Version: 6.00 Build 0) --> <svg xmlns="http://www.w3.org/2000/svg" xmlns:xlink="http://www.w3.org/1999/xlink" id="Слой_1" x="0px" y="0px" viewBox="0 0 996.2 258.6" style="enable-background:new 0 0 996.2 258.6;" xml:space="preserve"> <style type="text/css"> .st0{fill:#575756;} .st1{fill:#737D27;} </style> <g> <g> <g> <path class="st0" d="M34.9,149.8v21.8h42.5v-21.8H34.9z M74,168.3H38.1v-15.1H74V168.3z"></path> <g> <g> <path class="st0" d="M35.4,147l-0.2-9.3l353.8,0.3l0.2,8.8l-1.7,0L35.4,147z M38.6,141l0.1,2.6l347.3-0.2l0-2.1L38.6,141z"></path> </g> </g> <g> <g> <path class="st0" d="M386.7,134.3l-350,0l65.1-19.1h211.5L386.7,134.3z M71.4,129.2l276.2,0l-35-9.1H102.4L71.4,129.2z"></path> </g> </g> <g> <g> <g> <g> <path class="st1" d="M390,105.8c0,0-3.2-2.2-9.8-7c-3.3-2.3-6.5-4.7-9.8-7l-4.9-3.5l-4.9-3.5l-9.7-7.1L346,74l-4.9-3.6 l-9.7-7.1l-9.7-7.1L312,49l2.3,0.1l-17.2,12c-2.9,2-5.7,4-8.6,6l-8.7,6l-1.5,1l-1.4-1.1l-16.5-13l-8.2-6.5l-8.2-6.5 l-16.4-13.1l-16.4-13.1l3.2,0.2l-18.1,11.8l-18.1,11.7l-36.4,23.3l-1.3,0.8l-1.3-0.9l-6.2-4.2l-6.2-4.2L114.4,51l2.2,0 C102,61.1,81.4,75.1,56.5,91.7c-19.6,13-21.4,13.8-21.4,13.8s14.1-11.2,79.3-58l1.1-0.8l1.2,0.8l12.6,8.1l6.3,4l6.3,4.1 l-2.6,0l36-23.9L193.3,28l18.1-11.8l1.7-1.1l1.6,1.2L231,29.4l16.4,13.1l8.2,6.6l8.2,6.6L280,69l-2.9-0.1l8.7-5.8 c2.9-2,5.8-3.9,8.8-5.8l17.5-11.6l1.2-0.8l1.1,0.9l9.5,7.4l9.5,7.5l9.5,7.5l4.7,3.7l4.7,3.8l9.4,7.5l4.7,3.8l4.7,3.8l9.4,7.6 C387,103.2,390,105.8,390,105.8z"></path> </g> </g> <g> <path class="st1" d="M209,20.5c0,0-0.3,0.3-0.9,0.8c-0.6,0.5-1.5,1.2-2.6,2.1c-1.1,0.9-2.5,2-4.1,3.3 c-1.6,1.2-3.4,2.6-5.4,4.1c-4,3-8.7,6.5-13.7,10.1c-1.3,0.9-2.6,1.8-3.9,2.7c-1.3,0.9-2.6,1.9-4,2.8c-2.7,1.9-5.4,3.7-8.2,5.6 c-2.8,1.8-5.5,3.7-8.2,5.5c-1.4,0.9-2.7,1.8-4.1,2.6c-1.3,0.9-2.7,1.7-4,2.6c-5.2,3.3-10.2,6.4-14.5,8.9 c-2.1,1.3-4.1,2.4-5.9,3.4c-1.8,1-3.3,1.9-4.6,2.6c-1.3,0.7-2.3,1.2-3,1.6c-0.7,0.4-1.1,0.6-1.1,0.6s0.3-0.3,0.9-0.8 c0.6-0.5,1.5-1.2,2.6-2.1c1.1-0.9,2.5-2,4.1-3.3c1.6-1.2,3.4-2.6,5.4-4.1c4-3,8.7-6.5,13.7-10.1c1.3-0.9,2.6-1.8,3.9-2.7 c1.3-0.9,2.6-1.9,4-2.8c2.7-1.9,5.4-3.7,8.2-5.6c2.8-1.8,5.5-3.7,8.2-5.5c1.4-0.9,2.7-1.8,4.1-2.6c1.3-0.9,2.7-1.7,4-2.6 c5.2-3.3,10.2-6.4,14.5-8.9c2.1-1.3,4.1-2.4,5.9-3.4c1.7-1,3.3-1.9,4.6-2.6c1.3-0.7,2.3-1.2,3-1.6 C208.7,20.7,209,20.5,209,20.5z"></path> </g> <g> <path class="st1" d="M212.9,18.6c0,0,0.4,0.2,1,0.7c0.7,0.5,1.6,1.2,2.9,2.1c1.2,0.9,2.7,2,4.4,3.2c1.7,1.3,3.6,2.7,5.7,4.3 c2.1,1.6,4.3,3.3,6.6,5.1c2.3,1.8,4.8,3.8,7.3,5.8c1.3,1,2.5,2.1,3.8,3.1c1.3,1.1,2.6,2.1,3.9,3.2c2.6,2.2,5.3,4.4,7.9,6.6 c2.6,2.2,5.3,4.5,7.9,6.7c1.3,1.1,2.6,2.2,3.8,3.3c1.3,1.1,2.5,2.2,3.7,3.3c2.4,2.1,4.8,4.2,7,6.2c2.2,2,4.3,3.9,6.2,5.7 c1.9,1.8,3.7,3.4,5.2,4.9c1.5,1.4,2.9,2.7,4,3.8c1.7,1.6,2.5,2.5,2.5,2.5s-2-1.2-3-1.9c-2.1-1.5-3.6-2.7-4.4-3.2 c-1.7-1.3-3.6-2.7-5.7-4.3c-2.1-1.6-4.3-3.3-6.6-5.1c-2.3-1.8-4.8-3.8-7.3-5.8c-1.3-1-2.5-2.1-3.8-3.1 c-1.3-1.1-2.6-2.1-3.9-3.2c-2.6-2.2-5.3-4.4-7.9-6.6c-2.6-2.2-5.3-4.5-7.9-6.7c-1.3-1.1-2.6-2.2-3.8-3.3 c-1.3-1.1-2.5-2.2-3.7-3.3c-2.4-2.1-4.8-4.2-7-6.2c-2.2-2-4.3-3.9-6.2-5.7c-1.9-1.8-3.7-3.4-5.2-4.9c-1.5-1.4-2.9-2.7-4-3.8 c-1.1-1.1-1.9-1.9-2.5-2.5C213.7,19.4,212.9,18.6,212.9,18.6z"></path> </g> </g> </g> <path class="st0" d="M190.5,149.8v21.8H233v-21.8H190.5z M229.7,168.3h-35.9v-15.1h35.9V168.3z"></path> <path class="st0" d="M346.8,149.8v21.8h42.5v-21.8H346.8z M386,168.3h-35.9v-15.1H386V168.3z"></path> </g> <g> <path class="st1" d="M447,133.3h-15v36.7h-8.4V88.5h8.4v36.5h14l24.5-36.5h10.5l-27,40l30.1,41.6h-10.5L447,133.3z"></path> <path class="st1" d="M544.4,171.4c-23,0-41.3-16.1-41.3-42.1c0-26.1,18.5-42.2,41.4-42.2c22.9,0,41.4,16.3,41.4,42.2 C585.9,154,569,171.4,544.4,171.4z M544.4,162.4c18,0,31.7-13.3,31.7-33.1c0-19.8-13.5-33.3-31.6-33.3 c-17.7,0-31.6,13.3-31.6,33.3C512.9,149.1,526.5,162.4,544.4,162.4z"></path> <path class="st1" d="M618.8,147.8c0.6,11,13.2,15.2,23.2,15.2c9.8-0.3,21.8-3.7,22.2-15.6c0-13.2-12.4-13.4-23.4-14.9 c-14.8-1.5-29.7-5.4-29.7-21.7c0-16.1,15.3-23.7,29.6-23.7c14.1-0.3,30,6.5,30.5,22.4H662c-0.9-10.4-11.9-13.6-21.2-13.6 c-9,0.3-20.2,4.1-20.2,14.8c0,12.1,11.8,12.6,21.7,13.9c16.2,1.9,31.4,4.8,31.4,22.9c0,17.5-16.8,23.8-31.6,24.1 c-15.2,0.3-32.2-6.9-32.8-23.7H618.8z"></path> <path class="st1" d="M754.9,170.1v-38.2h-43.1v38.2h-9.7V88.5h9.7v34.4h43.1V88.5h9.8v81.6H754.9z"></path> <path class="st1" d="M797.7,142.3V88.5h9.8v53.7c0,12.9,9.1,20.2,21.6,20.2c12.4,0,21.5-7.2,21.5-20.2V88.5h9.6v53.9 c0,18.3-13.4,28.8-31,28.8C811.4,171.1,797.7,160.6,797.7,142.3z"></path> <path class="st1" d="M902,108.4l0.8,22.4v39.3h-9.7V88.2h3.4l53.2,61.8l-1-23.4V88.3h9.8v81.8h-3.1L902,108.4z"></path> </g> </g> <g> <path class="st0" d="M740.6,234.3v-33.5c4.4,0,9,0,13.4,0c7.2,0,11.7,5.1,11.7,11.5c0,6.4-4.6,11.4-11.7,11.4h-9.4v10.6H740.6z M754,220.1c4.5,0,7.9-3.3,7.9-7.9c0-4.5-3.3-7.9-7.9-7.9c-3.1,0-6.3,0-9.5,0v15.8H754z"></path> <path class="st0" d="M778.5,226.1l-3.9,8.3h-4.2v-0.5l15.6-33.1h1.8l15.5,33.1v0.5h-4.1l-3.9-8.3H778.5z M779.9,222.6H794l-7-15.7 L779.9,222.6z"></path> <path class="st0" d="M817.3,230.8h15.8v3.6h-19.8v-33.5h4V230.8z"></path> <path class="st0" d="M847.3,230.8h15.8v3.6h-19.8v-33.5h4V230.8z"></path> <path class="st0" d="M892.8,204.3h-15.5v11h14.9v3.5h-14.9v11.9h16v3.7h-20v-33.5h19.5V204.3z"></path> <path class="st0" d="M902,204.4v-3.6h24.6v3.6h-10.3v29.9h-3.9v-29.9H902z"></path> <path class="st0" d="M938.3,225.2c0.2,4.5,5.4,6.2,9.5,6.2c4-0.1,9-1.5,9.1-6.4c0-5.4-5.1-5.5-9.6-6.1c-6.1-0.6-12.2-2.2-12.2-8.9 c0-6.6,6.3-9.7,12.2-9.7c5.8-0.1,12.3,2.7,12.5,9.2H956c-0.4-4.3-4.9-5.6-8.7-5.6c-3.7,0.1-8.3,1.7-8.3,6.1c0,5,4.8,5.2,8.9,5.7 c6.7,0.8,12.9,2,12.9,9.4c0,7.2-6.9,9.8-13,9.9c-6.2,0.1-13.2-2.8-13.5-9.7H938.3z"></path> </g> </g> </svg> 